<?xml version="1.0" standalone="no"?><!DOCTYPE svg PUBLIC "-//W3C//DTD SVG 1.1//EN" "http://www.w3.org/Graphics/SVG/1.1/DTD/svg11.dtd"><svg t="1525657066730" class="icon" style="" viewBox="0 0 1024 1024" version="1.1" xmlns="http://www.w3.org/2000/svg" p-id="2054" xmlns:xlink="http://www.w3.org/1999/xlink" width="200" height="200"><defs><style type="text/css"></style></defs><path d="M654.222222 625.777778H568.888889V426.666667a28.444444 28.444444 0 0 0-28.444445-28.444445h-170.666666a28.444444 28.444444 0 0 0-28.444445 28.444445v56.888889a28.444444 28.444444 0 0 0 28.444445 28.444444H455.111111v113.777778H369.777778a28.444444 28.444444 0 0 0-28.444445 28.444444v56.888889a28.444444 28.444444 0 0 0 28.444445 28.444445h284.444444a28.444444 28.444444 0 0 0 28.444445-28.444445v-56.888889a28.444444 28.444444 0 0 0-28.444445-28.444444zM910.222222 56.888889H113.777778a56.888889 56.888889 0 0 0-56.888889 56.888889v796.444444a56.888889 56.888889 0 0 0 56.888889 56.888889h796.444444a56.888889 56.888889 0 0 0 56.888889-56.888889V113.777778a56.888889 56.888889 0 0 0-56.888889-56.888889z m-56.888889 768a28.444444 28.444444 0 0 1-28.444444 28.444444h-625.777778a28.444444 28.444444 0 0 1-28.444444-28.444444v-512a28.444444 28.444444 0 0 1 28.444444-28.444445h625.777778a28.444444 28.444444 0 0 1 28.444444 28.444445v512z" fill="" p-id="2055"></path></svg>